<svg width="460" height="512" viewBox="0 0 460 512" fill="none" xmlns="http://www.w3.org/2000/svg">
<path d="M190 40C184.48 40 180 44.48 180 50C180 55.52 184.48 60 190 60C195.52 60 200 55.52 200 50C200 44.48 195.52 40 190 40ZM70 172C64.48 172 60 176.48 60 182C60 187.52 64.48 192 70 192C75.52 192 80 187.52 80 182C80 176.48 75.52 172 70 172ZM70 232C64.48 232 60 236.48 60 242C60 247.52 64.48 252 70 252C75.52 252 80 247.52 80 242C80 236.48 75.52 232 70 232ZM70 292C64.48 292 60 296.48 60 302C60 307.52 64.48 312 70 312C75.52 312 80 307.52 80 302C80 296.48 75.52 292 70 292ZM70 352C64.48 352 60 356.48 60 362C60 367.52 64.48 372 70 372C75.52 372 80 367.52 80 362C80 356.48 75.52 352 70 352ZM70 412C64.48 412 60 416.48 60 422C60 427.52 64.48 432 70 432C75.52 432 80 427.52 80 422C80 416.48 75.52 412 70 412ZM310 172H110C104.478 172 100 176.478 100 182C100 187.522 104.478 192 110 192H310C315.522 192 320 187.522 320 182C320 176.478 315.522 172 310 172ZM310 232H110C104.478 232 100 236.478 100 242C100 247.522 104.478 252 110 252H310C315.522 252 320 247.522 320 242C320 236.478 315.522 232 310 232ZM310 292H110C104.478 292 100 296.478 100 302C100 307.522 104.478 312 110 312H310C315.522 312 320 307.522 320 302C320 296.478 315.522 292 310 292ZM397.071 384.928C393.165 381.024 386.835 381.024 382.929 384.929L350 417.857L337.071 404.928C333.165 401.024 326.835 401.024 322.928 404.928C319.023 408.833 319.023 415.165 322.928 419.071L342.928 439.071C344.882 441.023 347.44 442 350 442C352.56 442 355.118 441.023 357.071 439.071L397.071 399.071C400.976 395.166 400.976 388.834 397.071 384.928Z" fill="#4256EC"/>
<path d="M380 314.006V90C380 73.458 366.542 60 350 60H278.28C274.152 48.361 263.037 40 250 40H238.995C234.35 17.206 214.146 0 190 0C165.854 0 145.65 17.206 141.005 40H130C116.964 40 105.848 48.361 101.72 60H30C13.458 60 0 73.458 0 90V482C0 498.542 13.458 512 30 512H360C415.141 512 460 467.141 460 412C460 363.973 426.188 323.329 380 314.006ZM120 70C120 64.486 124.486 60 130 60H150C155.522 60 160 55.522 160 50C160 33.458 173.458 20 190 20C206.542 20 220 33.458 220 50C220 55.522 224.478 60 230 60H250C255.514 60 260 64.486 260 70V80H120V70ZM30 492C24.486 492 20 487.514 20 482V90C20 84.486 24.486 80 30 80H100V90C100 95.522 104.478 100 110 100H270C275.522 100 280 95.522 280 90V80H350C355.514 80 360 84.486 360 90V312C328.373 312 298.865 326.86 280.007 352H110C104.478 352 100 356.478 100 362C100 367.522 104.478 371.9 110 371.9H268.332C262.855 384.429 260 398.096 260 412H110C104.478 412 100 416.478 100 422C100 427.522 104.478 432 110 432H262.006C266.969 456.585 280.803 477.661 299.906 492H30ZM360 492C319.147 492 284.966 461.435 280.49 420.911C280.166 417.952 280.002 414.977 280 412C280 396.096 284.65 380.744 293.449 367.595L293.459 367.579L293.47 367.562C308.371 345.294 333.241 332 360 332C362.943 332 365.941 332.165 368.911 332.49C409.439 336.97 440 371.15 440 412C440 456.112 404.112 492 360 492Z" fill="#4256EC"/>
</svg>
