<svg width="512" height="512" viewBox="0 0 512 512" fill="none" xmlns="http://www.w3.org/2000/svg">
<path d="M404.704 318.08C422.28 295.839 431.891 268.347 432 240C432 214.684 424.493 189.937 410.428 168.887C396.363 147.838 376.372 131.431 352.983 121.743C329.595 112.055 303.858 109.521 279.028 114.459C254.199 119.398 231.391 131.589 213.49 149.49C195.589 167.391 183.398 190.199 178.459 215.028C173.521 239.858 176.055 265.595 185.743 288.983C195.431 312.372 211.838 332.363 232.887 346.428C253.937 360.493 278.684 368 304 368C332.347 367.891 359.839 358.28 382.08 340.704L468.704 427.328C471.722 430.243 475.763 431.855 479.958 431.819C484.154 431.782 488.167 430.1 491.133 427.133C494.1 424.167 495.782 420.154 495.819 415.958C495.855 411.763 494.243 407.722 491.328 404.704L404.704 318.08ZM208 240C208 221.013 213.63 202.452 224.179 186.665C234.728 170.878 249.721 158.574 267.262 151.308C284.804 144.042 304.106 142.14 322.729 145.845C341.351 149.549 358.456 158.692 371.882 172.118C385.308 185.544 394.451 202.649 398.155 221.271C401.86 239.894 399.958 259.196 392.692 276.738C385.426 294.279 373.122 309.272 357.335 319.821C341.548 330.37 322.987 336 304 336C278.547 335.975 254.144 325.852 236.146 307.854C218.148 289.856 208.025 265.453 208 240ZM480 48H32C27.7565 48 23.6869 49.6857 20.6863 52.6863C17.6857 55.6869 16 59.7565 16 64C16 68.2435 17.6857 72.3131 20.6863 75.3137C23.6869 78.3143 27.7565 80 32 80H480C484.243 80 488.313 78.3143 491.314 75.3137C494.314 72.3131 496 68.2435 496 64C496 59.7565 494.314 55.6869 491.314 52.6863C488.313 49.6857 484.243 48 480 48ZM32 272H128C132.243 272 136.313 270.314 139.314 267.314C142.314 264.313 144 260.243 144 256C144 251.757 142.314 247.687 139.314 244.686C136.313 241.686 132.243 240 128 240H32C27.7565 240 23.6869 241.686 20.6863 244.686C17.6857 247.687 16 251.757 16 256C16 260.243 17.6857 264.313 20.6863 267.314C23.6869 270.314 27.7565 272 32 272ZM32 368H128C132.243 368 136.313 366.314 139.314 363.314C142.314 360.313 144 356.243 144 352C144 347.757 142.314 343.687 139.314 340.686C136.313 337.686 132.243 336 128 336H32C27.7565 336 23.6869 337.686 20.6863 340.686C17.6857 343.687 16 347.757 16 352C16 356.243 17.6857 360.313 20.6863 363.314C23.6869 366.314 27.7565 368 32 368ZM32 464H384C388.243 464 392.313 462.314 395.314 459.314C398.314 456.313 400 452.243 400 448C400 443.757 398.314 439.687 395.314 436.686C392.313 433.686 388.243 432 384 432H32C27.7565 432 23.6869 433.686 20.6863 436.686C17.6857 439.687 16 443.757 16 448C16 452.243 17.6857 456.313 20.6863 459.314C23.6869 462.314 27.7565 464 32 464ZM32 176H128C132.243 176 136.313 174.314 139.314 171.314C142.314 168.313 144 164.243 144 160C144 155.757 142.314 151.687 139.314 148.686C136.313 145.686 132.243 144 128 144H32C27.7565 144 23.6869 145.686 20.6863 148.686C17.6857 151.687 16 155.757 16 160C16 164.243 17.6857 168.313 20.6863 171.314C23.6869 174.314 27.7565 176 32 176Z" fill="#4256EC"/>
</svg>
