<svg width="502" height="510" viewBox="0 0 502 510" fill="none" xmlns="http://www.w3.org/2000/svg">
<path d="M434.704 154.52H300.672V58.912C300.707 51.2822 299.218 43.7222 296.293 36.675C293.369 29.6279 289.067 23.2353 283.64 17.872C278.264 12.4597 271.868 8.16755 264.822 5.24399C257.776 2.32042 250.22 0.823544 242.592 0.840009H58.272C26.248 0.840009 0.192017 26.896 0.192017 58.92V181.8C0.192017 213.824 26.248 239.88 58.272 239.88H61.632V273.96C61.632 285.176 68.328 295.136 78.68 299.328C82.016 300.672 85.48 301.328 88.912 301.328C96.08 301.328 103.064 298.488 108.176 293.184L147.2 254.376V368.56C147.2 405.56 177.304 435.664 214.304 435.664H311.832L376.496 499.976C380.659 504.294 386.019 507.266 391.887 508.509C397.754 509.753 403.86 509.21 409.416 506.952C415.027 504.686 419.829 500.789 423.2 495.764C426.572 490.74 428.358 484.819 428.328 478.768V435.664H434.696C471.696 435.664 501.8 405.56 501.8 368.56V221.624C501.808 184.624 471.704 154.52 434.704 154.52ZM147.256 220.48L91.088 276.328C90.112 277.344 88.968 277.608 87.68 277.072C87.048 276.842 86.5071 276.414 86.1381 275.852C85.769 275.29 85.5915 274.623 85.632 273.952V227.872C85.632 224.689 84.3677 221.637 82.1173 219.387C79.8669 217.136 76.8146 215.872 73.632 215.872H58.272C49.2367 215.861 40.5745 212.267 34.1855 205.879C27.7966 199.49 24.2026 190.827 24.192 181.792V58.912C24.2026 49.8767 27.7966 41.2144 34.1855 34.8255C40.5745 28.4366 49.2367 24.8426 58.272 24.832H242.592C251.664 24.832 260.216 28.384 266.712 34.88C269.888 38.021 272.406 41.7647 274.116 45.8914C275.826 50.0182 276.695 54.4449 276.672 58.912V154.52H214.304C205.491 154.503 196.762 156.234 188.622 159.612C180.481 162.99 173.092 167.948 166.88 174.2C154.546 186.472 147.502 203.083 147.256 220.48ZM477.808 368.552C477.795 379.98 473.25 390.936 465.169 399.017C457.088 407.098 446.132 411.643 434.704 411.656H416.336C413.153 411.656 410.101 412.92 407.851 415.171C405.6 417.421 404.336 420.473 404.336 423.656V478.76C404.383 480.036 404.031 481.294 403.328 482.36C402.625 483.425 401.607 484.245 400.416 484.704C399.254 485.185 397.97 485.291 396.744 485.005C395.519 484.72 394.414 484.058 393.584 483.112L325.256 415.152C323.007 412.915 319.964 411.658 316.792 411.656H214.304C202.876 411.643 191.92 407.098 183.839 399.017C175.758 390.936 171.213 379.98 171.2 368.552V221.624C171.2 210.136 175.696 199.328 183.848 191.176C187.836 187.157 192.58 183.97 197.808 181.797C203.036 179.625 208.643 178.511 214.304 178.52H434.704C446.132 178.533 457.088 183.078 465.169 191.159C473.25 199.24 477.795 210.196 477.808 221.624V368.552Z" fill="#4256EC"/>
<path d="M250.216 277.576C240.456 277.576 232.512 285.528 232.512 295.28C232.512 305.032 240.464 312.984 250.216 312.984C259.984 312.984 267.936 305.032 267.936 295.28C267.936 285.528 259.984 277.576 250.216 277.576ZM324.496 277.576C314.736 277.576 306.792 285.528 306.792 295.28C306.792 305.032 314.744 312.984 324.496 312.984C334.264 312.984 342.216 305.032 342.216 295.28C342.216 285.528 334.272 277.576 324.496 277.576ZM398.784 277.576C389.024 277.576 381.08 285.528 381.08 295.28C381.08 305.032 389.032 312.984 398.784 312.984C408.552 312.984 416.504 305.032 416.504 295.28C416.504 285.528 408.552 277.576 398.784 277.576Z" fill="#4256EC"/>
</svg>
