<svg xmlns="http://www.w3.org/2000/svg" version="1.1" xmlns:xlink="http://www.w3.org/1999/xlink" width="512" height="512" x="0" y="0" viewBox="0 0 599 599.174" style="enable-background:new 0 0 512 512" xml:space="preserve" class=""><g><path d="M588.684 278.344a48.997 48.997 0 0 0-26.891-18.395 9.648 9.648 0 0 0-2.477-.308h-.257a49.436 49.436 0 0 0 10.242-29.957c0-27.579-22.356-49.93-49.93-49.93-27.574 0-49.93 22.351-49.93 49.93a49.16 49.16 0 0 0 2.305 14.207 46.638 46.638 0 0 0-9.785-3.903 10.08 10.08 0 0 0-2.508-.32h-.258a49.44 49.44 0 0 0 10.246-29.957c0-27.578-22.359-49.93-49.933-49.93-27.574 0-49.93 22.352-49.93 49.93a49.436 49.436 0 0 0 10.242 29.957h-.258c-.843 0-1.687.11-2.503.32a46.67 46.67 0 0 0-9.79 3.903 49.165 49.165 0 0 0 2.31-14.207c0-27.579-22.36-49.93-49.934-49.93s-49.93 22.351-49.93 49.93a49.415 49.415 0 0 0 10.246 29.957h-.258a9.672 9.672 0 0 0-2.527.328c-22.16 6.304-37.446 26.558-37.418 49.605v39.946c0 5.511 4.469 9.984 9.984 9.984h19.973v69.902c0 5.516 4.472 9.989 9.988 9.989 5.512 0 9.984-4.473 9.984-9.989V349.52c0-5.516-4.472-9.989-9.984-9.989H259.73v-29.957a31.84 31.84 0 0 1 21.372-29.96h59.605a51.345 51.345 0 0 0-1.09 9.988v39.945c0 5.512 4.473 9.984 9.988 9.984h19.973v69.903c0 5.515 4.473 9.988 9.984 9.988 5.516 0 9.989-4.473 9.989-9.988v-79.887c0-5.516-4.473-9.988-9.989-9.988H359.59v-29.957c.02-13.512 8.59-25.532 21.355-29.961h77.13a31.763 31.763 0 0 1 21.35 29.96v29.958h-19.972c-5.516 0-9.984 4.472-9.984 9.988v79.887c0 5.515 4.468 9.988 9.984 9.988s9.988-4.473 9.988-9.988V339.53h19.973c5.512 0 9.984-4.472 9.984-9.984v-39.945a51.341 51.341 0 0 0-1.086-9.989h59.633a29.328 29.328 0 0 1 14.793 10.742 31.98 31.98 0 0 1 6.551 19.22v29.956h-19.973c-5.515 0-9.988 4.473-9.988 9.989v79.886c0 5.516 4.473 9.989 9.988 9.989s9.985-4.473 9.985-9.989v-69.902h19.972c5.516 0 9.989-4.473 9.989-9.984v-39.946a51.902 51.902 0 0 0-10.578-31.23zm-298.997-48.66c0-16.551 13.415-29.957 29.958-29.957 16.546 0 29.96 13.406 29.96 29.957 0 16.543-13.414 29.957-29.96 29.957-16.543 0-29.958-13.414-29.958-29.957zm99.864-19.973c0-16.55 13.414-29.957 29.957-29.957 16.547 0 29.96 13.406 29.96 29.957 0 16.543-13.413 29.957-29.96 29.957-16.543 0-29.957-13.414-29.957-29.957zm129.82-9.984c16.543 0 29.957 13.406 29.957 29.957 0 16.543-13.414 29.957-29.957 29.957s-29.957-13.414-29.957-29.957c0-16.551 13.414-29.957 29.957-29.957zm0 0" fill="#4256ec" opacity="1" data-original="#000000" class=""></path><path d="M489.414 519.285h-379.48v-79.89h16.828C141.05 469.539 174.66 485.37 207 477.199c32.344-8.172 54.39-38.078 52.64-71.39s-26.808-60.739-59.827-65.48v-10.782c-.055-33.426-23.723-62.152-56.524-68.59a59.777 59.777 0 0 0 13.524-60.184 59.777 59.777 0 0 0-46.88-40.097V79.89h379.481v89.875h19.973V49.93C509.352 22.367 487.02.027 459.453 0H139.895c-27.567.027-49.899 22.367-49.93 49.93v110.746a59.777 59.777 0 0 0-46.88 40.097 59.777 59.777 0 0 0 13.524 60.184C23.81 267.395.141 296.121.086 329.547v79.887c0 16.546 13.414 29.96 29.96 29.96h59.919v109.848c.031 27.559 22.363 49.899 49.93 49.934h319.558c27.567-.035 49.899-22.375 49.934-49.934V429.406h-19.973zM239.758 409.434c0 27.578-22.36 49.933-49.934 49.933s-49.93-22.355-49.93-49.933 22.356-49.93 49.93-49.93c27.567.031 49.899 22.367 49.934 49.93zM139.895 19.973h319.558c16.547 0 29.961 13.41 29.961 29.957v9.988h-379.48V49.93c0-16.547 13.418-29.957 29.96-29.957zm-39.946 159.78c22.059 0 39.946 17.88 39.946 39.942s-17.887 39.946-39.946 39.946c-22.058 0-39.945-17.883-39.945-39.946s17.887-39.941 39.945-39.941zm-79.89 229.68v-79.886c.035-27.567 22.367-49.902 49.933-49.934h59.914c27.567.032 49.899 22.367 49.934 49.934v10.781a69.241 69.241 0 0 0-46.145 27.152 69.25 69.25 0 0 0-12.972 51.942H30.047c-5.516 0-9.988-4.473-9.988-9.988zm439.394 169.77H139.895c-16.543 0-29.961-13.414-29.961-29.96v-9.985h379.48v9.984c0 16.547-13.414 29.961-29.96 29.961zm0 0" fill="#4256ec" opacity="1" data-original="#000000" class=""></path><path d="M449.469 99.863h19.972v19.973H449.47zM409.523 99.863h19.973v19.973h-19.973zM369.578 99.863h19.973v19.973h-19.973zM129.906 99.863h19.973v19.973h-19.973zM319.645 549.242h-39.942c-5.515 0-9.988 4.473-9.988 9.988 0 5.512 4.472 9.985 9.988 9.985h39.942c5.515 0 9.988-4.473 9.988-9.985 0-5.515-4.473-9.988-9.988-9.988zM179.84 379.477v19.972h-19.973v19.973h19.973v19.973h19.972v-19.973h19.973v-19.973h-19.972v-19.972zm0 0" fill="#4256ec" opacity="1" data-original="#000000" class=""></path></g></svg>