<svg xmlns="http://www.w3.org/2000/svg" version="1.1" xmlns:xlink="http://www.w3.org/1999/xlink" width="512" height="512" x="0" y="0" viewBox="0 0 64 64" style="enable-background:new 0 0 512 512" xml:space="preserve" class=""><g><path d="m61.517 38.644-.014-.023A4.738 4.738 0 0 0 55.393 37l-6.408 3.278a5.514 5.514 0 0 0-7-1.714L33.916 42.7a2.941 2.941 0 0 1-2.72-.017l-5.5-2.92a12.769 12.769 0 0 0-13.342.808l-.622-2.962a1 1 0 0 0-1.189-.772L2.789 38.51a1 1 0 0 0-.768 1.182l4.515 21.513a1 1 0 0 0 .978.8 1.054 1.054 0 0 0 .21-.022l7.758-1.67a1 1 0 0 0 .769-1.183l-.4-1.926 2.651-.57a6.879 6.879 0 0 1 2.35-.09l12.469 1.367a10.694 10.694 0 0 0 7.379-1.732l19.973-13.4a3.018 3.018 0 0 0 .844-4.135ZM8.287 59.811 4.182 40.256l5.8-1.25 4.108 19.556Zm51.273-18.69-19.972 13.4a8.735 8.735 0 0 1-6.03 1.4L21.09 54.554a8.762 8.762 0 0 0-3.012.12l-2.642.568L12.8 42.7l.683-.476a10.779 10.779 0 0 1 11.274-.694l5.5 2.92a4.928 4.928 0 0 0 4.57.031L42.9 40.34a3.536 3.536 0 0 1 4.67 1.378 1.009 1.009 0 0 1-.354 1.374l-11.126 6.6a8.809 8.809 0 0 1-6.473 1.025l-10.036-2.4-.465 1.946 10.046 2.4a10.81 10.81 0 0 0 7.948-1.251l11.127-6.6a3 3 0 0 0 1.454-2.652l6.609-3.382a2.736 2.736 0 0 1 3.52.929l.011.018a1.026 1.026 0 0 1-.271 1.396Z" fill="#4256ec" opacity="1" data-original="#000000" class=""></path><path d="m6.516 41.792 1.958-.41.41 1.955-1.958.41zM21 28a1 1 0 0 0-1 1v6a1 1 0 0 0 1 1h4a1 1 0 0 0 1-1v-6a1 1 0 0 0-1-1Zm3 6h-2v-4h2ZM30 21a1 1 0 0 0-1 1v13a1 1 0 0 0 1 1h4a1 1 0 0 0 1-1V22a1 1 0 0 0-1-1Zm3 13h-2V23h2ZM39 24a1 1 0 0 0-1 1v10a1 1 0 0 0 1 1h4a1 1 0 0 0 1-1V25a1 1 0 0 0-1-1Zm3 10h-2v-8h2ZM48 19a1 1 0 0 0-1 1v15a1 1 0 0 0 1 1h4a1 1 0 0 0 1-1V20a1 1 0 0 0-1-1Zm3 15h-2V21h2ZM21 12.414l6.293 6.293a1 1 0 0 0 1.414 0L40 7.414l8.293 8.293a1 1 0 0 0 1.414 0L60 5.414V8h2V3a1 1 0 0 0-1-1h-5v2h2.586L49 13.586l-8.293-8.293a1 1 0 0 0-1.414 0L28 16.586l-6.293-6.293a1 1 0 0 0-1.414 0l-14 14 1.414 1.414Z" fill="#4256ec" opacity="1" data-original="#000000" class=""></path></g></svg>