<svg xmlns="http://www.w3.org/2000/svg" version="1.1" xmlns:xlink="http://www.w3.org/1999/xlink" width="512" height="512" x="0" y="0" viewBox="0 0 512 512" style="enable-background:new 0 0 512 512" xml:space="preserve" class=""><g><path d="M76.8 0C48.572 0 25.6 22.963 25.6 51.2s22.972 51.2 51.2 51.2S128 79.437 128 51.2 105.028 0 76.8 0zm0 85.333c-18.825 0-34.133-15.309-34.133-34.133S57.975 17.067 76.8 17.067s34.133 15.309 34.133 34.133S95.625 85.333 76.8 85.333z" fill="#4256ec" opacity="1" data-original="#000000" class=""></path><path d="M110.95 68.267h-.213a8.543 8.543 0 0 0-6.81 3.388C97.365 80.35 87.475 85.333 76.8 85.333c-10.675 0-20.565-4.983-27.127-13.679-1.613-2.133-4.352-3.388-7.023-3.388C19.132 68.267 0 87.398 0 110.916v34.15a8.536 8.536 0 0 0 8.533 8.533h136.533a8.536 8.536 0 0 0 8.533-8.533v-34.15c.001-23.518-19.131-42.649-42.649-42.649zm25.583 68.266H17.067v-25.617c0-12.843 9.506-23.501 22.016-25.31C48.794 96.333 62.302 102.4 76.8 102.4c14.507 0 28.023-6.076 37.734-16.819 12.416 1.749 21.999 12.45 21.999 25.335v25.617zM435.2 0C406.972 0 384 22.963 384 51.2s22.972 51.2 51.2 51.2 51.2-22.963 51.2-51.2S463.428 0 435.2 0zm0 85.333c-18.825 0-34.133-15.309-34.133-34.133s15.309-34.133 34.133-34.133c18.825 0 34.133 15.309 34.133 34.133S454.025 85.333 435.2 85.333z" fill="#4256ec" opacity="1" data-original="#000000" class=""></path><path d="M469.35 68.267h-.213a8.543 8.543 0 0 0-6.81 3.388c-6.562 8.695-16.452 13.679-27.128 13.679-10.675 0-20.565-4.983-27.127-13.679-1.613-2.133-4.352-3.388-7.023-3.388-23.518 0-42.65 19.132-42.65 42.65v34.15a8.536 8.536 0 0 0 8.533 8.533h136.533a8.536 8.536 0 0 0 8.533-8.533v-34.15c.002-23.519-19.13-42.65-42.648-42.65zm25.583 68.266H375.467v-25.617c0-12.843 9.506-23.501 22.016-25.31 9.711 10.726 23.219 16.794 37.717 16.794 14.507 0 28.023-6.076 37.734-16.819 12.416 1.749 21.999 12.45 21.999 25.335v25.617zM76.8 358.4c-28.228 0-51.2 22.963-51.2 51.2 0 28.237 22.972 51.2 51.2 51.2s51.2-22.963 51.2-51.2c0-28.237-22.972-51.2-51.2-51.2zm0 85.333c-18.825 0-34.133-15.309-34.133-34.133 0-18.825 15.309-34.133 34.133-34.133s34.133 15.309 34.133 34.133c0 18.825-15.308 34.133-34.133 34.133z" fill="#4256ec" opacity="1" data-original="#000000" class=""></path><path d="M110.95 426.667h-.213a8.543 8.543 0 0 0-6.81 3.388c-6.562 8.695-16.452 13.679-27.128 13.679-10.675 0-20.565-4.983-27.127-13.679-1.613-2.133-4.352-3.388-7.023-3.388-23.518 0-42.65 19.132-42.65 42.65v34.15C0 508.177 3.823 512 8.533 512h136.533a8.536 8.536 0 0 0 8.533-8.533v-34.15c.001-23.519-19.131-42.65-42.649-42.65zm25.583 68.266H17.067v-25.617c0-12.843 9.506-23.501 22.016-25.31C48.794 454.733 62.302 460.8 76.8 460.8c14.507 0 28.023-6.076 37.734-16.819 12.416 1.749 21.999 12.45 21.999 25.335v25.617zM435.2 358.4c-28.228 0-51.2 22.963-51.2 51.2 0 28.237 22.972 51.2 51.2 51.2s51.2-22.963 51.2-51.2c0-28.237-22.972-51.2-51.2-51.2zm0 85.333c-18.825 0-34.133-15.309-34.133-34.133 0-18.825 15.309-34.133 34.133-34.133 18.825 0 34.133 15.309 34.133 34.133 0 18.825-15.308 34.133-34.133 34.133z" fill="#4256ec" opacity="1" data-original="#000000" class=""></path><path d="M469.35 426.667h-.213a8.543 8.543 0 0 0-6.81 3.388c-6.562 8.695-16.452 13.679-27.128 13.679-10.675 0-20.565-4.983-27.127-13.679-1.613-2.133-4.352-3.388-7.023-3.388-23.518 0-42.65 19.132-42.65 42.65v34.15a8.536 8.536 0 0 0 8.533 8.533h136.533a8.536 8.536 0 0 0 8.533-8.533v-34.15c.002-23.519-19.13-42.65-42.648-42.65zm25.583 68.266H375.467v-25.617c0-12.843 9.506-23.501 22.016-25.31 9.711 10.726 23.219 16.794 37.717 16.794 14.507 0 28.023-6.076 37.734-16.819 12.416 1.749 21.999 12.45 21.999 25.335v25.617zM397.406 42.615a258.728 258.728 0 0 0-22.775-13.483 8.538 8.538 0 0 0-11.52 3.593c-2.185 4.173-.572 9.335 3.601 11.52a241.439 241.439 0 0 1 21.257 12.587 8.484 8.484 0 0 0 4.71 1.425 8.54 8.54 0 0 0 7.117-3.814c2.602-3.926 1.535-9.225-2.39-11.828zM329.011 10.581a255.904 255.904 0 0 0-48.341-9.404c-4.676-.418-8.866 2.995-9.31 7.68-.452 4.685 2.987 8.858 7.68 9.31a239.16 239.16 0 0 1 45.107 8.772c.811.239 1.63.358 2.432.358a8.579 8.579 0 0 0 8.183-6.101c1.34-4.522-1.237-9.275-5.751-10.615zM231.433 1.169a255.471 255.471 0 0 0-48.35 9.387c-4.514 1.34-7.091 6.093-5.751 10.607a8.534 8.534 0 0 0 8.175 6.11c.802 0 1.621-.119 2.441-.358a237.847 237.847 0 0 1 45.107-8.755c4.685-.444 8.124-4.608 7.68-9.301s-4.609-8.125-9.302-7.69zM148.89 32.725c-2.185-4.173-7.347-5.777-11.52-3.593a258.644 258.644 0 0 0-22.776 13.483c-3.925 2.603-5 7.902-2.389 11.827a8.515 8.515 0 0 0 7.117 3.814c1.621 0 3.26-.461 4.71-1.425a238.556 238.556 0 0 1 21.257-12.587c4.181-2.183 5.785-7.346 3.601-11.519zM483.968 352.734c-4.267-2.005-9.344-.145-11.341 4.122a240.311 240.311 0 0 1-11.588 21.811c-2.415 4.045-1.109 9.284 2.935 11.708a8.45 8.45 0 0 0 4.378 1.22c2.901 0 5.734-1.485 7.313-4.147a255.255 255.255 0 0 0 12.425-23.373c1.996-4.267.145-9.344-4.122-11.341zM510.84 231.586c-.444-4.693-4.591-8.09-9.301-7.689-4.693.444-8.132 4.608-7.689 9.301a239.035 239.035 0 0 1 1.084 22.801 241.7 241.7 0 0 1-3.413 40.457c-.785 4.642 2.338 9.054 6.98 9.847.478.085.964.119 1.442.119 4.079 0 7.689-2.935 8.397-7.091a257.912 257.912 0 0 0 2.5-67.745zM495.479 165.47a256.243 256.243 0 0 0-10.65-24.235c-2.125-4.207-7.253-5.914-11.46-3.789a8.534 8.534 0 0 0-3.797 11.46 239.326 239.326 0 0 1 9.941 22.613 8.537 8.537 0 0 0 7.979 5.513 8.614 8.614 0 0 0 3.029-.555 8.53 8.53 0 0 0 4.958-11.007zM38.639 137.446c-4.215-2.125-9.344-.418-11.46 3.789a256.644 256.644 0 0 0-10.65 24.235 8.532 8.532 0 0 0 4.958 11.008 8.557 8.557 0 0 0 3.021.555 8.556 8.556 0 0 0 7.987-5.513 239.326 239.326 0 0 1 9.941-22.613c2.117-4.216.41-9.344-3.797-11.461zM20.471 296.397A240.904 240.904 0 0 1 17.066 256c0-7.629.367-15.317 1.075-22.844.452-4.693-2.987-8.858-7.68-9.31-4.651-.401-8.858 2.987-9.301 7.68a258.717 258.717 0 0 0 2.484 67.738 8.538 8.538 0 0 0 9.847 6.98c4.651-.793 7.774-5.205 6.98-9.847zM50.944 378.667a240.194 240.194 0 0 1-11.588-21.811c-1.997-4.267-7.074-6.127-11.341-4.122a8.542 8.542 0 0 0-4.122 11.341 257.237 257.237 0 0 0 12.425 23.373 8.532 8.532 0 0 0 7.33 4.147 8.36 8.36 0 0 0 4.361-1.22 8.534 8.534 0 0 0 2.935-11.708zM375.441 221.867H221.884c-9.421 0-17.084 7.663-17.084 17.084v102.366c0 9.421 7.663 17.084 17.092 17.084h81.775l48.7 48.7a8.535 8.535 0 0 0 9.301 1.851 8.547 8.547 0 0 0 5.265-7.885V358.4h8.516c9.421 0 17.084-7.663 17.084-17.092V238.95c0-9.42-7.663-17.083-17.092-17.083zm.009 119.466H358.4a8.536 8.536 0 0 0-8.533 8.533v30.601l-36.634-36.634a8.513 8.513 0 0 0-6.033-2.5l-85.333-.026V238.95l.017-.017 153.583.017-.017 102.383z" fill="#4256ec" opacity="1" data-original="#000000" class=""></path><path d="M281.574 170.667H128.017c-9.421 0-17.084 7.663-17.084 17.084v102.366c0 9.421 7.663 17.084 17.084 17.084h8.516v42.667a8.542 8.542 0 0 0 8.534 8.534c2.219 0 4.403-.87 6.033-2.5l48.7-48.7h13.534a8.536 8.536 0 0 0 8.533-8.533V238.95l68.267-.017a8.536 8.536 0 0 0 8.533-8.533v-42.65c0-9.42-7.663-17.083-17.093-17.083zm.026 51.2h-59.716c-9.421 0-17.084 7.663-17.084 17.084v51.183h-8.533a8.513 8.513 0 0 0-6.033 2.5L153.6 329.267v-30.601a8.536 8.536 0 0 0-8.533-8.533L128 290.116l.017-102.383 153.583.017v34.117z" fill="#4256ec" opacity="1" data-original="#000000" class=""></path><path d="M298.667 264.533h-51.2a8.536 8.536 0 0 0-8.533 8.533 8.536 8.536 0 0 0 8.533 8.533h51.2a8.536 8.536 0 0 0 8.533-8.533 8.536 8.536 0 0 0-8.533-8.533zM349.867 264.533H332.8a8.536 8.536 0 0 0-8.533 8.533 8.536 8.536 0 0 0 8.533 8.533h17.067a8.536 8.536 0 0 0 8.533-8.533 8.536 8.536 0 0 0-8.533-8.533zM349.867 298.667h-51.2c-4.71 0-8.533 3.823-8.533 8.533s3.823 8.533 8.533 8.533h51.2c4.71 0 8.533-3.823 8.533-8.533s-3.823-8.533-8.533-8.533zM264.533 298.667h-17.067c-4.71 0-8.533 3.823-8.533 8.533s3.823 8.533 8.533 8.533h17.067c4.71 0 8.533-3.823 8.533-8.533s-3.822-8.533-8.533-8.533zM171.511 479.514a240.097 240.097 0 0 1-22.613-9.941c-4.207-2.108-9.344-.418-11.46 3.789a8.535 8.535 0 0 0 3.797 11.46 254.07 254.07 0 0 0 24.235 10.65 8.557 8.557 0 0 0 3.021.555 8.537 8.537 0 0 0 7.979-5.513 8.521 8.521 0 0 0-4.959-11zM294.127 500.693a8.524 8.524 0 0 0-9.489-7.458c-18.893 2.261-38.443 2.261-57.412-.017a8.522 8.522 0 0 0-9.489 7.45c-.555 4.676 2.782 8.926 7.458 9.489A259.588 259.588 0 0 0 256 512c10.249 0 20.574-.614 30.669-1.818 4.685-.563 8.021-4.812 7.458-9.489zM374.554 473.361c-2.125-4.207-7.253-5.914-11.46-3.789a236.899 236.899 0 0 1-22.613 9.941 8.528 8.528 0 0 0-4.958 10.999 8.556 8.556 0 0 0 7.987 5.513 8.454 8.454 0 0 0 3.012-.555 258.175 258.175 0 0 0 24.235-10.65 8.533 8.533 0 0 0 3.797-11.459z" fill="#4256ec" opacity="1" data-original="#000000" class=""></path></g></svg>